<svg width="144" height="53" viewBox="0 0 144 53" fill="none" xmlns="http://www.w3.org/2000/svg">
<path d="M53.0799 25.4319C53.0884 23.7444 54.0941 22.7558 55.56 22.7558C57.0174 22.7558 57.8952 23.7103 57.8867 25.3126V33.0001H61.5174V24.6649C61.5174 21.6137 59.7276 19.7387 57.0004 19.7387C55.0572 19.7387 53.6509 20.6933 53.0629 22.2188H52.9094V19.9092H49.4492V33.0001H53.0799V25.4319Z" fill="#515151"/>
<path d="M70.3448 33.2558C73.5835 33.2558 75.7653 31.6791 76.2766 29.2501L72.9187 29.0285C72.5522 30.0257 71.6147 30.5455 70.4045 30.5455C68.5891 30.5455 67.4386 29.3438 67.4386 27.3921V27.3836H76.3533V26.3865C76.3533 21.9376 73.6602 19.7387 70.1999 19.7387C66.3477 19.7387 63.8505 22.4745 63.8505 26.5143C63.8505 30.6649 66.3136 33.2558 70.3448 33.2558ZM67.4386 25.1336C67.5153 23.6421 68.6488 22.449 70.2596 22.449C71.8363 22.449 72.9272 23.574 72.9357 25.1336H67.4386Z" fill="#515151"/>
<path d="M87.1175 27.4262C87.1261 29.1819 85.9244 30.1024 84.6204 30.1024C83.2482 30.1024 82.3619 29.1393 82.3533 27.5967V19.9092H78.7227V28.2444C78.7312 31.3041 80.521 33.1705 83.1545 33.1705C85.1232 33.1705 86.538 32.1563 87.1261 30.6222H87.2624V33.0001H90.7482V19.9092H87.1175V27.4262Z" fill="#515151"/>
<path d="M93.6523 33.0001H97.283V25.5938C97.283 23.983 98.4592 22.8751 100.061 22.8751C100.564 22.8751 101.255 22.9603 101.596 23.0711V19.8495C101.272 19.7728 100.82 19.7217 100.453 19.7217C98.9876 19.7217 97.7859 20.574 97.3086 22.1933H97.1722V19.9092H93.6523V33.0001Z" fill="#515151"/>
<path d="M108.778 33.2558C112.75 33.2558 115.221 30.537 115.221 26.5058C115.221 22.449 112.75 19.7387 108.778 19.7387C104.806 19.7387 102.335 22.449 102.335 26.5058C102.335 30.537 104.806 33.2558 108.778 33.2558ZM108.795 30.4433C106.963 30.4433 106.025 28.7643 106.025 26.4802C106.025 24.1961 106.963 22.5086 108.795 22.5086C110.593 22.5086 111.531 24.1961 111.531 26.4802C111.531 28.7643 110.593 30.4433 108.795 30.4433Z" fill="#515151"/>
<path d="M121.213 25.4319C121.221 23.7444 122.227 22.7558 123.693 22.7558C125.15 22.7558 126.028 23.7103 126.02 25.3126V33.0001H129.65V24.6649C129.65 21.6137 127.86 19.7387 125.133 19.7387C123.19 19.7387 121.784 20.6933 121.196 22.2188H121.042V19.9092H117.582V33.0001H121.213V25.4319Z" fill="#515151"/>
<path d="M143.404 23.6421C143.08 21.2302 141.137 19.7387 137.83 19.7387C134.48 19.7387 132.273 21.2899 132.282 23.8126C132.273 25.7728 133.509 27.0427 136.066 27.5541L138.333 28.0058C139.475 28.2359 139.995 28.6535 140.012 29.3097C139.995 30.0853 139.151 30.6393 137.881 30.6393C136.586 30.6393 135.725 30.0853 135.503 29.02L131.932 29.2075C132.273 31.7132 134.404 33.2558 137.873 33.2558C141.265 33.2558 143.694 31.5257 143.702 28.9433C143.694 27.0512 142.458 25.9177 139.918 25.3978L137.549 24.9205C136.33 24.6563 135.878 24.2387 135.887 23.608C135.878 22.824 136.765 22.3126 137.89 22.3126C139.151 22.3126 139.901 23.0029 140.08 23.8467L143.404 23.6421Z" fill="#515151"/>
<path d="M0.647081 0.921746C3.69232 0.455092 6.76006 0.149517 9.83751 0.00629632C13.6321 -0.0749381 17.0705 0.610869 19.5466 3.17444C24.1723 7.97196 24.2566 14.3442 24.3285 17.0077C24.3281 18.1707 24.7349 19.2971 25.4783 20.1915C26.4406 21.5366 26.8249 21.9677 27.9778 23.6424C29.0151 25.1359 29.176 25.9107 27.7028 26.7668C26.2297 27.6229 26.2563 27.8838 26.6093 28.5368C26.9104 29.0058 27.0562 29.5577 27.0262 30.1142C26.9962 30.6708 26.7919 31.2038 26.4422 31.6378C27.1811 33.2593 25.7688 33.5889 26.2672 34.8668C26.7655 36.1447 26.7358 37.5226 25.3924 38.4271C24.0489 39.3316 22.532 39.255 19.8887 39.2347C17.2455 39.2144 15.9723 39.2004 16.3222 42.1873C16.6721 45.1742 16.605 48.6064 14.8006 50.2623C12.9963 51.9182 11.3903 51.9245 10.1718 51.5605C8.95331 51.1965 9.01579 51.7683 7.48171 52.4681C5.94763 53.168 4.23077 52.8321 4.23858 52.1791C4.23858 51.937 4.46041 51.8026 4.79629 51.2512C6.14134 49.0844 5.4696 45.5523 5.03843 42.9622C4.5479 39.705 6.10229 40.1096 8.65805 39.894C10.4778 39.8282 12.2711 39.4383 13.9539 38.7426C15.299 38.0709 15.1178 36.7993 14.6803 35.5807C14.0742 33.9529 15.2927 33.3937 13.8727 31.819C14.7944 30.5348 14.546 29.8756 14.1617 29.2632C13.6446 28.429 13.4228 27.3792 14.9428 26.6918C16.6175 25.9388 16.7987 25.6826 15.702 24.297C14.4772 22.7504 13.9258 22.2786 12.9104 21.0163C12.0761 19.9744 11.2279 18.9589 11.1201 17.5592C10.8654 14.2348 10.2249 8.32033 5.7383 4.45857C4.45516 3.43554 2.91016 2.79405 1.27977 2.60736C0.329954 2.43864 -0.0121686 2.27774 0.000328961 1.67004C0.0128266 1.06234 0.309646 0.960801 0.647081 0.921746Z" fill="#694883"/>
</svg>
